<?xml version="1.0" encoding="UTF-8"?><svg xmlns="http://www.w3.org/2000/svg" xmlns:xlink="http://www.w3.org/1999/xlink" version="1.1" id="Layer_1" x="0px" y="0px" viewBox="0 0 48 48" xml:space="preserve"><g id="surface1_117_"><path d="M41 24c0 9.391-7.609 17-17 17S7 33.391 7 24 14.609 7 24 7s17 7.609 17 17z" fill="#FFF"/><path d="M21 41v-5.5a.499.499 0 1 1 1 0V41h2v-6.5a.499.499 0 1 1 1 0V41h2v-5.5a.499.499 0 1 1 1 0V41h1.758c.156-.273.242-.629.242-1.078V35.98c0-2.164-1.91-5.234-4.25-5.234h-2.5c-2.34 0-4.25 3.074-4.25 5.234v3.941c0 .449.086.805.242 1.078H21z" fill="#455A64"/><path d="M34.617 26.195s1.914-.328 3.043-.305c1.145.008 2.441.363 2.441.363" fill="none" stroke="#455A64" stroke-width="0.25" stroke-linecap="round" stroke-linejoin="round" stroke-miterlimit="10"/><path d="M34.137 26.813s2.184-.203 3.086-.172c1.254.031 2.594.414 2.594.414" fill="none" stroke="#455A64" stroke-width="0.25" stroke-linecap="round" stroke-linejoin="round" stroke-miterlimit="10"/><path d="M14.562 26.09s-2.707-.246-3.551-.246c-.852 0-2.453.246-3.227.465" fill="none" stroke="#455A64" stroke-width="0.25" stroke-linecap="round" stroke-linejoin="round" stroke-miterlimit="10"/><path d="M15.18 26.934s-2.84-.262-4.133-.109c-1.543.184-2.895.992-2.895.992" fill="none" stroke="#455A64" stroke-width="0.25" stroke-linecap="round" stroke-linejoin="round" stroke-miterlimit="10"/><path d="M14.176 23.461C14.176 19.043 18.793 15 24.5 15c5.695 0 10.324 4.043 10.324 8.461S31.512 31 24.5 31s-10.324-3.121-10.324-7.539z" fill="#455A64"/><path d="M28.586 16.313S30.262 14 33.356 14c1.234 1.23.387 4.758-.016 5.816l-4.754-3.503z" fill="#455A64"/><path d="M20.402 16.313S18.726 14 15.644 14c-1.23 1.234-.395 4.762.008 5.82l4.75-3.507z" fill="#455A64"/><path d="M20.105 35.863h-2.789c-1.219 0-2.301-.535-2.824-1.504-.586-1.082-1.141-2.301-2.586-3.309-.254-.18-.105-.441.395-.383.488.051 1.418.16 2.125 1.09.711.93 1.48 1.996 2.813 1.996 1.316 0 2.746.035 3.465-.918l-.599 3.028z" fill="#455A64"/><path d="M24 4C12.951 4 4 12.951 4 24s8.951 20 20 20 20-8.951 20-20S35.049 4 24 4zm0 36.031C15.16 40.031 7.969 32.84 7.969 24S15.16 7.969 24 7.969 40.031 15.16 40.031 24 32.84 40.031 24 40.031z" fill="#00BCD4"/></g><metadata><rdf:RDF xmlns:rdf="http://www.w3.org/1999/02/22-rdf-syntax-ns#" xmlns:rdfs="http://www.w3.org/2000/01/rdf-schema#" xmlns:dc="http://purl.org/dc/elements/1.1/"><rdf:Description about="https://iconscout.com/legal#licenses" dc:title="github" dc:description="github" dc:publisher="Iconscout" dc:date="2017-12-15" dc:format="image/svg+xml" dc:language="en"><dc:creator><rdf:Bag><rdf:li>Icons8</rdf:li></rdf:Bag></dc:creator></rdf:Description></rdf:RDF></metadata></svg>