<?xml version="1.0" encoding="UTF-8"?><!DOCTYPE svg PUBLIC "-//W3C//DTD SVG 1.1//EN" "http://www.w3.org/Graphics/SVG/1.1/DTD/svg11.dtd"><svg xmlns="http://www.w3.org/2000/svg" xmlns:xlink="http://www.w3.org/1999/xlink" version="1.1" id="Layer_1" x="0px" y="0px" width="512px" height="512px" viewBox="0 0 512 512" xml:space="preserve"><g transform="translate(384 48)"><g id="icon-javascript_1_1_"><path d="M-176 40.001h-80v212.498c0 52.58-18.032 67.261-49.412 67.261-14.705 0-27.948-2.521-38.25-6.063L-352 375.904c14.7 5.062 37.259 8.096 54.907 8.096C-225.045 384-176 350.129-176 253.02V40.001z"/><path d="M-1.537 32C-78.98 32-128 75.998-128 134.154c0 50.083 37.751 81.44 92.641 101.665 39.7 14.158 55.392 26.808 55.392 47.539 0 22.756-18.139 37.425-52.448 37.425-31.863 0-60.789-10.64-80.394-21.255v-.021L-128 362.727c18.639 10.638 53.441 21.255 91.167 21.255C53.854 383.98 96 335.43 96 278.284c0-48.55-26.958-79.9-85.278-102.163-43.139-17.191-61.27-26.795-61.27-48.542 0-17.2 15.688-32.869 48.043-32.869 31.846 0 53.744 10.707 66.505 17.291l19.125-64C63.125 39.22 36.188 32-1.537 32z"/></g></g><metadata><rdf:RDF xmlns:rdf="http://www.w3.org/1999/02/22-rdf-syntax-ns#" xmlns:rdfs="http://www.w3.org/2000/01/rdf-schema#" xmlns:dc="http://purl.org/dc/elements/1.1/"><rdf:Description about="https://iconscout.com/legal#licenses" dc:title="social,javascript" dc:description="social,javascript" dc:publisher="Iconscout" dc:date="2017-09-24" dc:format="image/svg+xml" dc:language="en"><dc:creator><rdf:Bag><rdf:li>Benjamin J Sperry</rdf:li></rdf:Bag></dc:creator></rdf:Description></rdf:RDF></metadata></svg>