<?xml version="1.0" encoding="UTF-8"?><svg xmlns="http://www.w3.org/2000/svg" xmlns:xlink="http://www.w3.org/1999/xlink" viewBox="0 0 48 48" version="1.1"><g id="surface1"><path d="M23.648 24.898c-.996-1.609-1.718-2.945-2.722-5.457C19.23 15.2 31.238 11.367 26.37 4c2.11 5.09-7.578 8.234-8.476 12.473-.825 3.898 5.75 8.425 5.753 8.425z" fill="#F44336"/><path d="M23.879 17.27c-.192 2.515 2.226 3.859 2.297 5.695.058 1.496-1.446 2.742-1.446 2.742s2.727-.535 3.579-2.816c.945-2.536-1.832-4.27-1.547-6.297.265-1.942 6.031-5.543 6.031-5.543s-8.48.558-8.914 6.219z" fill="#F44336"/><path d="M32.086 25.055c1.754-.395 3.23.722 3.23 2.011 0 2.899-4.02 5.641-4.02 5.641s6.224-.742 6.224-5.504c0-3.148-3.055-3.937-5.434-2.148z" fill="#1565C0"/><path d="M29.129 27.395s1.941-1.383 2.457-1.903c-4.762 1.012-15.637 1.149-15.637.27 0-.809 3.508-1.637 3.508-1.637s-7.773-.113-7.773 2.18c0 2.39 10.175 2.562 17.445 1.09z" fill="#1565C0"/><path d="M27.934 29.57c-4.508 1.5-12.813 1.02-10.352-.992-1.2 0-2.977.961-2.977 1.89 0 1.856 8.985 3.29 15.633.571z" fill="#1565C0"/><path d="M18.688 32.738c-1.637 0-2.696 1.055-2.696 1.825 0 2.39 9.758 2.628 13.625.203l-2.457-1.633c-2.89 1.27-10.144 1.445-8.473-.395z" fill="#1565C0"/><path d="M36.281 36.633c0-.938-1.054-1.38-1.433-1.59C37.074 40.418 12.53 40 12.53 36.828c0-.723 1.809-1.426 3.477-1.094l-1.418-.84c-3.328-.519-5.59.942-5.59 2.122 0 5.504 27.281 5.238 27.281-.383z" fill="#1565C0"/><path d="M39 38.605c-4.145 4.094-14.66 5.586-25.23 3.055C24.34 46.164 38.95 43.63 39 38.605z" fill="#1565C0"/></g><metadata><rdf:RDF xmlns:rdf="http://www.w3.org/1999/02/22-rdf-syntax-ns#" xmlns:rdfs="http://www.w3.org/2000/01/rdf-schema#" xmlns:dc="http://purl.org/dc/elements/1.1/"><rdf:Description about="https://iconscout.com/legal#licenses" dc:title="java" dc:description="java" dc:publisher="Iconscout" dc:date="2017-12-15" dc:format="image/svg+xml" dc:language="en"><dc:creator><rdf:Bag><rdf:li>Icons8</rdf:li></rdf:Bag></dc:creator></rdf:Description></rdf:RDF></metadata></svg>