<?xml version="1.0" encoding="UTF-8"?><svg xmlns="http://www.w3.org/2000/svg" xmlns:xlink="http://www.w3.org/1999/xlink" viewBox="0 0 48 48" version="1.1"><g id="surface1"><path d="M17.203 19.121l-4.906 2.715a.565.565 0 0 0-.297.492v5.434c0 .203.113.39.297.492l4.906 2.719c.184.097.41.097.594 0l4.906-2.72a.565.565 0 0 0 .297-.491v-5.434a.565.565 0 0 0-.297-.492l-4.906-2.715a.62.62 0 0 0-.297-.074.62.62 0 0 0-.297.074" fill="#388E3C"/><path d="M42.45 24.012l-.817.453c-.031.015-.047.047-.047.082v.906c0 .035.016.067.047.082l.816.453c.031.016.07.016.102 0l.816-.453a.091.091 0 0 0 .051-.082v-.906a.091.091 0 0 0-.05-.082l-.817-.453A.12.12 0 0 0 42.5 24a.12.12 0 0 0-.05.012" fill="#388E3C"/><path d="M35.75 13.363l-2.387-1.332a.234.234 0 0 0-.242.004.24.24 0 0 0-.121.207v8.055l-2.203-1.223A.62.62 0 0 0 30.5 19a.62.62 0 0 0-.297.074l-4.906 2.715a.565.565 0 0 0-.297.492v5.434c0 .203.113.39.297.492l4.906 2.719c.184.097.41.097.594 0l4.906-2.719a.565.565 0 0 0 .297-.492V13.789a.493.493 0 0 0-.25-.426zm-2.883 13.094l-2.23 1.234a.276.276 0 0 1-.27 0l-2.23-1.234a.256.256 0 0 1-.137-.223v-2.468c0-.094.05-.18.137-.227l2.23-1.234h-.004a.28.28 0 0 1 .137-.032c.047 0 .094.012.137.032l2.226 1.234a.257.257 0 0 1 .137.227v2.468a.26.26 0 0 1-.133.223z" fill="#37474F"/><path d="M17.203 19.121L12 27.761c0 .204.113.391.297.493l4.906 2.719c.184.097.41.097.594 0L23 22.328a.565.565 0 0 0-.297-.492l-4.906-2.715a.62.62 0 0 0-.297-.074.62.62 0 0 0-.297.074" fill="#2E7D32"/><path d="M17.203 19.121l-4.906 2.715a.565.565 0 0 0-.297.492l5.203 8.645c.184.097.41.097.594 0l4.906-2.72a.565.565 0 0 0 .297-.491l-5.203-8.64a.62.62 0 0 0-.297-.075.62.62 0 0 0-.297.074" fill="#4CAF50"/><path d="M47.703 21.79l-4.906-2.716A.62.62 0 0 0 42.5 19a.62.62 0 0 0-.297.074l-4.906 2.715a.578.578 0 0 0-.297.504v5.41c0 .211.113.402.297.504l4.906 2.719c.188.101.41.101.594 0l2.266-1.254c.207-.113.203-.41-.004-.527l-4.922-2.684a.268.268 0 0 1-.137-.23v-2.465a.26.26 0 0 1 .129-.223l2.234-1.234a.285.285 0 0 1 .137-.036.26.26 0 0 1 .133.036l2.234 1.238a.249.249 0 0 1 .133.219v2.011c0 .086.047.168.121.211.074.04.164.04.242-.004l2.399-1.39a.49.49 0 0 0 .238-.418v-1.88a.58.58 0 0 0-.297-.507z" fill="#37474F"/><path d="M10.703 21.79l-4.906-2.716A.62.62 0 0 0 5.5 19a.62.62 0 0 0-.297.074L.297 21.79a.578.578 0 0 0-.297.504v7.465c0 .086.047.168.121.21a.244.244 0 0 0 .242 0l2.399-1.394A.482.482 0 0 0 3 28.156v-4.39c0-.094.05-.18.129-.223l2.234-1.234a.285.285 0 0 1 .274 0l2.234 1.234a.26.26 0 0 1 .129.223v4.39c0 .172.09.332.238.418l2.399 1.395a.244.244 0 0 0 .242 0 .246.246 0 0 0 .121-.211v-7.461a.58.58 0 0 0-.297-.508z" fill="#37474F"/></g><metadata><rdf:RDF xmlns:rdf="http://www.w3.org/1999/02/22-rdf-syntax-ns#" xmlns:rdfs="http://www.w3.org/2000/01/rdf-schema#" xmlns:dc="http://purl.org/dc/elements/1.1/"><rdf:Description about="https://iconscout.com/legal#licenses" dc:title="nodejs" dc:description="nodejs" dc:publisher="Iconscout" dc:date="2017-12-15" dc:format="image/svg+xml" dc:language="en"><dc:creator><rdf:Bag><rdf:li>Icons8</rdf:li></rdf:Bag></dc:creator></rdf:Description></rdf:RDF></metadata></svg>