<?xml version="1.0" encoding="UTF-8"?><svg xmlns="http://www.w3.org/2000/svg" xmlns:xlink="http://www.w3.org/1999/xlink" viewBox="0 0 48 48" version="1.1"><g id="surface1"><path d="M24.047 5c-1.555.004-2.633.14-3.938.367-3.847.668-4.547 2.078-4.547 4.668V14h9v2h-13.69c-2.638 0-4.946 1.242-5.677 4.219-.824 3.418-.863 5.558 0 9.125C5.852 32.004 7.293 34 9.93 34h3.633v-5.105c0-2.965 2.687-5.895 5.765-5.895h7.235c2.523 0 5-1.863 5-4.379v-8.586c0-2.437-1.758-4.262-4.22-4.672.063-.004-1.753-.37-3.296-.363zm-4.985 4c.82 0 1.5.676 1.5 1.504a1.5 1.5 0 0 1-1.5 1.496 1.49 1.49 0 0 1-1.5-1.496c0-.824.665-1.504 1.5-1.504z" fill="#0277BD"/><path d="M23.078 43c1.555-.004 2.633-.14 3.938-.367 3.847-.668 4.547-2.078 4.547-4.668V34h-9v-2h13.695c2.633 0 4.941-1.242 5.672-4.219.828-3.418.863-5.558 0-9.125-.657-2.66-2.098-4.656-4.735-4.656h-3.633v5.105c0 2.965-2.687 5.895-5.765 5.895h-7.235c-2.523 0-5 1.863-5 4.379v8.586c0 2.437 1.758 4.262 4.22 4.672-.063.004 1.753.37 3.296.363zm4.985-4c-.82 0-1.5-.676-1.5-1.504a1.5 1.5 0 0 1 1.5-1.496c.835 0 1.5.664 1.5 1.496 0 .824-.665 1.504-1.5 1.504z" fill="#FFC107"/></g><metadata><rdf:RDF xmlns:rdf="http://www.w3.org/1999/02/22-rdf-syntax-ns#" xmlns:rdfs="http://www.w3.org/2000/01/rdf-schema#" xmlns:dc="http://purl.org/dc/elements/1.1/"><rdf:Description about="https://iconscout.com/legal#licenses" dc:title="python" dc:description="python" dc:publisher="Iconscout" dc:date="2017-12-15" dc:format="image/svg+xml" dc:language="en"><dc:creator><rdf:Bag><rdf:li>Icons8</rdf:li></rdf:Bag></dc:creator></rdf:Description></rdf:RDF></metadata></svg>